# xmcd
#
# Track frame offsets:
#	150
#	1403
#	41129
#	102920
#	126052
#	195406
#	242698
#	260066
#	284531
#	321277
#
# Disc length: 4547 seconds
#
# Revision: 1
# Processed by: cddbd v1.5.2PL0 Copyright (c) Steve Scherf et al.
# Submitted via: audiograbber 1.83.01
#
DISCID=8d11c10a
DTITLE=Grateful Dead - 77-05-25 The Mosque, Richmond VA
DYEAR=1900
DGENRE=
TTITLE0=Tuning 3
TTITLE1=Estimated Prophet
TTITLE2=He's Gone
TTITLE3=Drums
TTITLE4=The Other One
TTITLE5=Wharf Rat
TTITLE6=The Other One
TTITLE7=The Wheel
TTITLE8=Around and Around
TTITLE9=Johnny B Goode
EXTD=
EXTT0=
EXTT1=
EXTT2=
EXTT3=
EXTT4=
EXTT5=
EXTT6=
EXTT7=
EXTT8=
EXTT9=
PLAYORDER=
